<?xml version="1.0" standalone="no"?>
<!DOCTYPE svg PUBLIC "-//W3C//DTD SVG 20010904//EN"
 "http://www.w3.org/TR/2001/REC-SVG-20010904/DTD/svg10.dtd">
<svg version="1.0" xmlns="http://www.w3.org/2000/svg"
 width="700.000000pt" height="700.000000pt" viewBox="0 0 700.000000 700.000000"
 preserveAspectRatio="xMidYMid meet">
<metadata>
Created by potrace 1.14, written by Peter Selinger 2001-2017
</metadata>
<g transform="translate(0.000000,700.000000) scale(0.100000,-0.100000)"
fill="#000000" stroke="none">
<path d="M3309 6123 c-119 -236 -420 -833 -669 -1328 -250 -495 -470 -933
-489 -972 l-35 -73 -583 0 c-576 0 -583 0 -584 -20 0 -11 -1 -99 -1 -195 0
-96 1 -179 1 -185 1 -6 128 -10 361 -10 l360 0 0 -236 0 -235 -284 -562 c-497
-985 -936 -1857 -936 -1860 0 -2 1373 -3 3050 -3 1678 0 3050 3 3050 7 0 4
-173 355 -384 780 -733 1477 -818 1650 -815 1653 2 1 31 17 64 36 317 175 554
520 608 883 14 92 15 306 3 382 -74 438 -370 809 -769 963 -179 70 -276 87
-477 86 -180 -1 -333 -33 -501 -107 l-37 -16 -162 327 c-90 180 -250 504 -357
720 -107 215 -196 392 -197 392 -1 0 -99 -192 -217 -427z"/>
</g>
</svg>
